<?xml version="1.0" encoding="utf-8" standalone="no"?>
<!DOCTYPE svg PUBLIC "-//W3C//DTD SVG 1.1//EN"
  "http://www.w3.org/Graphics/SVG/1.1/DTD/svg11.dtd">
<svg xmlns:xlink="http://www.w3.org/1999/xlink" width="1152pt" height="576pt" viewBox="0 0 1152 576" xmlns="http://www.w3.org/2000/svg" version="1.1">
 <metadata>
  <rdf:RDF xmlns:dc="http://purl.org/dc/elements/1.1/" xmlns:cc="http://creativecommons.org/ns#" xmlns:rdf="http://www.w3.org/1999/02/22-rdf-syntax-ns#">
   <cc:Work>
    <dc:type rdf:resource="http://purl.org/dc/dcmitype/StillImage"/>
    <dc:date>2025-09-15T15:54:48.368328</dc:date>
    <dc:format>image/svg+xml</dc:format>
    <dc:creator>
     <cc:Agent>
      <dc:title>Matplotlib v3.10.3, https://matplotlib.org/</dc:title>
     </cc:Agent>
    </dc:creator>
   </cc:Work>
  </rdf:RDF>
 </metadata>
 <defs>
  <style type="text/css">*{stroke-linejoin: round; stroke-linecap: butt}</style>
 </defs>
 <g id="figure_1">
  <g id="patch_1">
   <path d="M 0 576 
L 1152 576 
L 1152 0 
L 0 0 
z
" style="fill: #ffffff"/>
  </g>
  <g id="axes_1">
   <g id="patch_2">
    <path d="M 144 512.64 
L 549.818182 512.64 
L 549.818182 69.12 
L 144 69.12 
z
" style="fill: #ffffff"/>
   </g>
   <g id="matplotlib.axis_1"/>
   <g id="matplotlib.axis_2"/>
   <g id="line2d_1">
    <path d="M 500.209973 89.28 
L 504.354403 95.21552 
L 508.191261 101.820755 
L 511.723384 109.058516 
L 514.953609 116.891614 
L 517.884771 125.282861 
L 520.519706 134.195067 
L 522.861251 143.591045 
L 524.912242 153.433606 
L 526.675515 163.68556 
L 528.153906 174.30972 
L 529.350252 185.268897 
L 530.267388 196.525901 
L 530.90815 208.043545 
L 531.275376 219.784639 
L 531.371901 231.711996 
L 531.200561 243.788426 
L 530.764192 255.976741 
L 530.065631 268.239751 
L 529.107714 280.540269 
L 527.893277 292.841106 
L 526.425155 305.105073 
L 524.706186 317.294982 
L 522.739206 329.373643 
L 520.52705 341.303868 
L 518.072555 353.048469 
L 515.296132 364.179984 
L 512.204948 374.819588 
L 508.903853 385.156874 
L 505.28281 395.054554 
L 501.570169 404.309069 
L 497.63917 413.390599 
L 493.436781 422.110515 
L 488.984024 430.350612 
L 484.28074 437.982968 
L 479.361318 445.035603 
L 474.357028 451.630523 
L 469.222764 457.489772 
L 463.953603 462.988673 
L 458.510912 468.061226 
L 452.990551 472.553921 
L 447.356084 476.29083 
L 441.606916 479.823751 
L 435.680321 482.796487 
L 429.706372 485.51032 
L 423.653309 487.668585 
L 417.390734 489.404915 
L 411.140817 490.613672 
L 404.793856 491.617376 
L 398.40474 492.33328 
L 391.884723 492.48 
L 385.380919 492.17004 
L 378.913571 491.673181 
L 372.523937 490.879965 
L 366.184011 490.001254 
L 359.852378 488.719592 
L 353.465442 487.26698 
L 347.069826 485.848633 
L 340.737402 484.412912 
L 334.437699 482.777478 
L 328.159357 481.413646 
L 321.912447 479.599735 
L 315.745716 478.163014 
L 309.528911 476.745216 
L 303.359375 475.724036 
L 297.10179 474.350525 
L 290.866448 472.976683 
L 284.6572 471.613831 
L 278.477893 470.273293 
L 272.332377 468.966391 
L 266.224503 467.704449 
L 260.158118 466.498789 
L 254.137073 465.360734 
L 248.165217 464.301607 
L 242.246399 463.332731 
L 236.384468 462.465428 
L 230.583275 461.711022 
L 224.846668 461.080835 
L 219.178496 460.586191 
L 213.58261 460.238411 
L 208.062858 460.04882 
L 202.623089 460.028739 
L 197.267154 460.189491 
L 191.998901 460.5424 
L 186.82218 461.098789 
L 181.740841 461.86998 
L 176.758731 462.867295 
L 171.879702 464.102059 
L 167.107602 465.585593 
L 162.446281 467.329221 
" clip-path="url(#p1afc5f4258)" style="fill: none; stroke: #ff0000; stroke-width: 1.5; stroke-linecap: square"/>
   </g>
   <g id="patch_3">
    <path d="M 144 512.64 
L 144 69.12 
" style="fill: none; stroke: #000000; stroke-width: 0.8; stroke-linejoin: miter; stroke-linecap: square"/>
   </g>
   <g id="patch_4">
    <path d="M 549.818182 512.64 
L 549.818182 69.12 
" style="fill: none; stroke: #000000; stroke-width: 0.8; stroke-linejoin: miter; stroke-linecap: square"/>
   </g>
   <g id="patch_5">
    <path d="M 144 512.64 
L 549.818182 512.64 
" style="fill: none; stroke: #000000; stroke-width: 0.8; stroke-linejoin: miter; stroke-linecap: square"/>
   </g>
   <g id="patch_6">
    <path d="M 144 69.12 
L 549.818182 69.12 
" style="fill: none; stroke: #000000; stroke-width: 0.8; stroke-linejoin: miter; stroke-linecap: square"/>
   </g>
  </g>
  <g id="axes_2">
   <g id="patch_7">
    <path d="M 630.981818 512.64 
L 1036.8 512.64 
L 1036.8 69.12 
L 630.981818 69.12 
z
" style="fill: #ffffff"/>
   </g>
   <g id="matplotlib.axis_3"/>
   <g id="matplotlib.axis_4"/>
   <g id="line2d_2">
    <path d="M 930.990997 99.742834 
L 937.329339 95.093742 
L 943.476798 91.837242 
L 949.427363 89.917829 
L 955.175018 89.28 
L 960.71375 89.86825 
L 966.037546 91.627073 
L 971.140393 94.500967 
L 976.016276 98.434426 
L 980.659181 103.371946 
L 985.063097 109.258022 
L 989.222008 116.03715 
L 993.129901 123.653826 
L 996.780763 132.052545 
L 1000.16858 141.177802 
L 1003.287339 150.974093 
L 1006.131025 161.385914 
L 1008.693626 172.35776 
L 1010.969128 183.834127 
L 1012.951516 195.75951 
L 1014.634779 208.078405 
L 1016.012901 220.735307 
L 1017.07987 233.674712 
L 1017.829671 246.841115 
L 1018.256292 260.179012 
L 1018.353719 273.632898 
L 1017.741364 287.04418 
L 1016.861932 299.995287 
L 1015.834003 312.900995 
L 1014.359731 325.932305 
L 1012.297724 338.26205 
L 1010.003783 350.368233 
L 1007.19538 362.058344 
L 1003.932263 373.716579 
L 1000.108448 384.653671 
L 996.261218 395.262292 
L 992.013752 405.912957 
L 987.605539 415.975178 
L 982.84843 425.128628 
L 977.653731 433.405529 
L 972.187842 441.727756 
L 966.371493 449.306977 
L 960.410192 455.85138 
L 954.238014 462.243793 
L 948.031898 467.51994 
L 941.845979 472.204023 
L 935.312753 476.991634 
L 928.63174 480.913945 
L 921.876331 484.032806 
L 914.86712 486.700672 
L 907.69697 489.155797 
L 900.691493 490.451926 
L 893.554043 491.385411 
L 886.58929 492.088049 
L 879.302691 492.48 
L 871.831311 492.37957 
L 864.540661 492.104055 
L 857.349214 491.498006 
L 850.168923 490.414087 
L 843.217189 489.623879 
L 836.386796 488.446293 
L 829.202993 487.244851 
L 822.296045 485.924565 
L 815.514412 484.975121 
L 808.88466 483.892029 
L 802.180023 483.011921 
L 795.497412 482.082992 
L 788.837502 481.115715 
L 782.200966 480.120568 
L 775.588481 479.108027 
L 769.000721 478.088567 
L 762.438359 477.072665 
L 755.902071 476.070797 
L 749.392531 475.093439 
L 742.910413 474.151067 
L 736.456393 473.254156 
L 730.031145 472.413184 
L 723.635344 471.638627 
L 717.269663 470.940959 
L 710.934779 470.330658 
L 704.631364 469.818199 
L 698.360094 469.414059 
L 692.121644 469.128714 
L 685.916688 468.972639 
L 679.7459 468.956311 
L 673.609955 469.090206 
L 667.509528 469.3848 
L 661.445293 469.850569 
L 655.417926 470.49799 
L 649.428099 471.337537 
" clip-path="url(#pa5cc9cb18e)" style="fill: none; stroke: #008000; stroke-width: 1.5; stroke-linecap: square"/>
   </g>
   <g id="patch_8">
    <path d="M 630.981818 512.64 
L 630.981818 69.12 
" style="fill: none; stroke: #000000; stroke-width: 0.8; stroke-linejoin: miter; stroke-linecap: square"/>
   </g>
   <g id="patch_9">
    <path d="M 1036.8 512.64 
L 1036.8 69.12 
" style="fill: none; stroke: #000000; stroke-width: 0.8; stroke-linejoin: miter; stroke-linecap: square"/>
   </g>
   <g id="patch_10">
    <path d="M 630.981818 512.64 
L 1036.8 512.64 
" style="fill: none; stroke: #000000; stroke-width: 0.8; stroke-linejoin: miter; stroke-linecap: square"/>
   </g>
   <g id="patch_11">
    <path d="M 630.981818 69.12 
L 1036.8 69.12 
" style="fill: none; stroke: #000000; stroke-width: 0.8; stroke-linejoin: miter; stroke-linecap: square"/>
   </g>
  </g>
 </g>
 <defs>
  <clipPath id="p1afc5f4258">
   <rect x="144" y="69.12" width="405.818182" height="443.52"/>
  </clipPath>
  <clipPath id="pa5cc9cb18e">
   <rect x="630.981818" y="69.12" width="405.818182" height="443.52"/>
  </clipPath>
 </defs>
</svg>
